<svg width="23" height="23" viewBox="0 0 23 23" fill="none" xmlns="http://www.w3.org/2000/svg">
<path d="M23 11.5C23 17.8513 17.8513 23 11.5 23C5.14873 23 0 17.8513 0 11.5C0 5.14873 5.14873 0 11.5 0C17.8513 0 23 5.14873 23 11.5ZM2.2337 11.5C2.2337 16.6176 6.38237 20.7663 11.5 20.7663C16.6176 20.7663 20.7663 16.6176 20.7663 11.5C20.7663 6.38237 16.6176 2.2337 11.5 2.2337C6.38237 2.2337 2.2337 6.38237 2.2337 11.5Z" fill="#9C9D9E"/>
<circle cx="11.2461" cy="6.44012" r="1.5" fill="#9C9D9E"/>
<path d="M9.75 10.353H11.75V16.853H9.25H13.75" stroke="#9C9D9E" stroke-width="1.8" stroke-linecap="round" stroke-linejoin="round"/>
</svg>
