<svg width="1398" height="368" viewBox="0 0 1398 368" fill="none" xmlns="http://www.w3.org/2000/svg">
<path d="M15.4794 0H99.7617C110.143 0 118.458 8.6036 118.104 18.979L109.094 282.843C112.723 220.551 145.055 113.098 222.674 113.098C343.894 113.098 274.623 310.702 315.747 355.846C317.072 357.3 316.102 360.095 314.135 360.095H212.111C200.531 360.095 191.573 349.295 193.298 337.844C200.78 288.182 213.147 181.277 203.211 181.277C184.573 181.277 181.778 367.819 56.6345 367.819C0.658859 367.819 -1.94832 296.566 0.658827 273.608L10.4828 4.81736C10.581 2.1288 12.7891 0 15.4794 0Z" fill="white"/>
<path d="M1125.65 242.306C1116.12 182.437 1088.84 112.028 1026.01 112.028C911.841 112.028 943.708 281.261 955.721 343.77C957.415 352.582 965.139 359.025 974.113 359.025H1046.13C1057.93 359.025 1067.32 347.969 1065.99 336.237C1060.17 284.847 1051.7 172.822 1051.7 172.822C1051.7 172.822 1070.89 366.748 1162.05 366.748C1268 366.748 1229.68 247.227 1224.45 212.974C1219.23 178.721 1227.34 175.228 1236.6 212.974C1253.18 280.551 1283.09 366.748 1343.47 366.748C1390.72 366.748 1399.08 306.723 1397.36 274.757C1397.3 273.613 1396.2 272.799 1395.06 272.919C1279.36 285.073 1305.06 112.028 1209.46 112.028C1131.36 112.028 1122.74 182.698 1125.65 242.306Z" fill="white"/>
<path d="M790.959 112.028C861.593 112.029 918.853 169.289 918.854 239.923C918.854 310.557 861.593 367.817 790.959 367.817H452.01C381.376 367.817 324.115 310.557 324.115 239.923C324.115 169.289 381.376 112.028 452.01 112.028H790.959ZM547.151 177.276C512.553 177.277 484.505 205.324 484.505 239.923C484.505 274.522 512.552 302.57 547.151 302.57H695.818C730.417 302.57 758.466 274.522 758.466 239.923C758.466 205.324 730.417 177.276 695.818 177.276H547.151Z" fill="white"/>
</svg>
