<svg width="1387" height="368" viewBox="0 0 1387 368" fill="none" xmlns="http://www.w3.org/2000/svg">
<path d="M69.7402 0H18.3527C8.21679 0 3.59407e-06 8.21676 3.59407e-06 18.3527V273.608C-0.000565529 304.808 3.43323e-05 367.819 55.9757 367.819C147.127 367.819 141.851 173.892 166.321 173.892C182.548 173.892 170.215 286.703 162.617 337.845C160.915 349.3 169.872 360.095 181.452 360.095H283.476C285.443 360.095 286.413 357.3 285.088 355.846C243.965 310.702 313.235 113.098 192.015 113.098C110.04 113.098 88.5772 232.952 88.0929 292.878V18.3527C88.0929 8.21678 79.8761 0 69.7402 0Z" fill="white"/>
<path d="M1115 242.306C1105.46 182.437 1078.18 112.028 1015.35 112.028C901.183 112.028 933.049 281.261 945.063 343.77C946.757 352.582 954.481 359.025 963.454 359.025H1035.47C1047.28 359.025 1056.66 347.969 1055.33 336.237C1049.51 284.847 1041.04 172.822 1041.04 172.822C1041.04 172.822 1060.24 366.748 1151.39 366.748C1257.34 366.748 1219.02 247.227 1213.8 212.974C1208.57 178.721 1216.68 175.228 1225.94 212.974C1242.52 280.551 1272.43 366.748 1332.81 366.748C1380.07 366.748 1388.43 306.723 1386.7 274.757C1386.64 273.613 1385.54 272.799 1384.4 272.919C1268.7 285.073 1294.41 112.028 1198.8 112.028C1120.7 112.028 1112.08 182.698 1115 242.306Z" fill="white"/>
<path d="M780.301 112.028C850.935 112.029 908.195 169.289 908.195 239.923C908.195 310.557 850.935 367.817 780.301 367.817H441.352C370.717 367.817 313.457 310.557 313.457 239.923C313.457 169.289 370.717 112.028 441.352 112.028H780.301ZM536.493 177.276C501.894 177.277 473.847 205.324 473.847 239.923C473.847 274.522 501.894 302.57 536.493 302.57H685.16C719.759 302.57 747.808 274.522 747.808 239.923C747.807 205.324 719.759 177.276 685.16 177.276H536.493Z" fill="white"/>
</svg>
